<svg xmlns="http://www.w3.org/2000/svg" width="19.148" height="18.458" viewBox="0 0 19.148 18.458">
  <g id="_031-linkedin" data-name="031-linkedin" transform="translate(0.09 -0.478)">
    <rect id="Rectangle_8" data-name="Rectangle 8" width="4.262" height="13.103" transform="translate(0 5.833)" fill="#fff"/>
    <path id="Path_5" data-name="Path 5" d="M169.916,160.056l-.134-.045c-.056-.015-.115-.022-.171-.034a3.852,3.852,0,0,0-.763-.078h0a5.906,5.906,0,0,0-4.578,2.505v-2.5H160v13.1h4.262v-7.147s3.22-4.485,4.578-1.191v8.338H173.1v-8.84A4.252,4.252,0,0,0,169.916,160.056Z" transform="translate(-154.044 -154.071)" fill="#fff"/>
    <ellipse id="Ellipse_2" data-name="Ellipse 2" cx="2" cy="1.5" rx="2" ry="1.5" transform="translate(-0.09 0.478)" fill="#fff"/>
  </g>
</svg>
