<svg id="_034-instagram" data-name="034-instagram" xmlns="http://www.w3.org/2000/svg" width="19.058" height="19.058" viewBox="0 0 19.058 19.058">
  <path id="Path_1" data-name="Path 1" d="M13.1,0H5.956A5.954,5.954,0,0,0,0,5.956V13.1a5.954,5.954,0,0,0,5.956,5.956H13.1A5.954,5.954,0,0,0,19.058,13.1V5.956A5.954,5.954,0,0,0,13.1,0Zm4.169,13.1A4.172,4.172,0,0,1,13.1,17.272H5.956A4.172,4.172,0,0,1,1.787,13.1V5.956A4.172,4.172,0,0,1,5.956,1.787H13.1a4.172,4.172,0,0,1,4.169,4.169Z" fill="#fff"/>
  <path id="Path_2" data-name="Path 2" d="M132.765,128a4.765,4.765,0,1,0,4.765,4.765A4.764,4.764,0,0,0,132.765,128Zm0,7.742a2.978,2.978,0,1,1,2.978-2.978A2.982,2.982,0,0,1,132.765,135.742Z" transform="translate(-123.235 -123.235)" fill="#fff"/>
  <ellipse id="Ellipse_1" data-name="Ellipse 1" cx="0.637" cy="0.637" rx="0.637" ry="0.637" transform="translate(14.015 3.771)" fill="#fff"/>
</svg>
