<?xml version="1.0" encoding="utf-8"?>
<!-- Generator: Adobe Illustrator 24.0.3, SVG Export Plug-In . SVG Version: 6.00 Build 0)  -->
<svg version="1.1" id="Capa_1" xmlns="http://www.w3.org/2000/svg" xmlns:xlink="http://www.w3.org/1999/xlink" x="0px" y="0px"
	 viewBox="0 0 284.9 284.9" style="enable-background:new 0 0 284.9 284.9;" xml:space="preserve">
<style type="text/css">
	.st0{fill:#FFFFFF;}
</style>
<g>
	<path class="st0" d="M193.5,7.4L64.9,136.1c-1.8,1.8-2.8,4-2.8,6.4c0,2.4,1,4.5,2.8,6.4l128.6,128.6c1.8,1.8,4,2.8,6.4,2.8
		c2.4,0,4.5-1,6.4-2.8l13.8-13.8c1.8-1.8,2.8-4,2.8-6.4s-1-4.5-2.8-6.4L111.6,142.4L220,33.9c1.8-1.8,2.7-4,2.7-6.4s-1-4.5-2.7-6.4
		L206.2,7.4c-1.8-1.8-4-2.7-6.4-2.7C197.5,4.7,195.4,5.6,193.5,7.4z"/>
</g>
</svg>
